<svg width="40" height="40" viewBox="0 0 40 40" fill="none" xmlns="http://www.w3.org/2000/svg">
<g clip-path="url(#clip0_54_255)">
<path d="M20.0072 0C11.6575 0 9.21548 0.00861724 8.74077 0.0479243C7.02728 0.190488 5.961 0.460346 4.79948 1.03877C3.90418 1.48354 3.19817 1.99892 2.50137 2.72141C1.23236 4.03911 0.463301 5.66022 0.184825 7.58702C0.049518 8.52253 0.0100597 8.71332 0.00219832 13.4916C-0.000825298 15.0844 0.00219832 17.1804 0.00219832 19.9922C0.00219832 28.3374 0.0112699 30.7776 0.0513329 31.2516C0.189815 32.9194 0.451207 33.9687 1.00498 35.1165C2.06325 37.3136 4.08454 38.963 6.46565 39.5785C7.29004 39.7907 8.2006 39.9077 9.36953 39.9631C9.86495 39.9845 14.9132 40 19.9645 40C25.0159 40 30.0673 39.9939 30.5502 39.9693C31.9038 39.9055 32.6898 39.7999 33.559 39.5753C35.9553 38.9569 37.9396 37.3321 39.0195 35.1043C39.5624 33.984 39.8377 32.8947 39.9622 31.3141C39.9895 30.9694 40.0008 25.4745 40.0008 19.9869C40.0008 14.4984 39.9884 9.01372 39.9615 8.66903C39.8353 7.06273 39.5599 5.98254 38.9994 4.84112C38.5395 3.90652 38.0288 3.20852 37.2874 2.49494C35.9643 1.23092 34.3462 0.461556 32.4179 0.183383C31.4836 0.048227 31.2976 0.00831496 26.5168 0H20.0072Z" fill="url(#paint0_radial_54_255)"/>
<path d="M20.0072 0C11.6575 0 9.21548 0.00861724 8.74077 0.0479243C7.02728 0.190488 5.961 0.460346 4.79948 1.03877C3.90418 1.48354 3.19817 1.99892 2.50137 2.72141C1.23236 4.03911 0.463301 5.66022 0.184825 7.58702C0.049518 8.52253 0.0100597 8.71332 0.00219832 13.4916C-0.000825298 15.0844 0.00219832 17.1804 0.00219832 19.9922C0.00219832 28.3374 0.0112699 30.7776 0.0513329 31.2516C0.189815 32.9194 0.451207 33.9687 1.00498 35.1165C2.06325 37.3136 4.08454 38.963 6.46565 39.5785C7.29004 39.7907 8.2006 39.9077 9.36953 39.9631C9.86495 39.9845 14.9132 40 19.9645 40C25.0159 40 30.0673 39.9939 30.5502 39.9693C31.9038 39.9055 32.6898 39.7999 33.559 39.5753C35.9553 38.9569 37.9396 37.3321 39.0195 35.1043C39.5624 33.984 39.8377 32.8947 39.9622 31.3141C39.9895 30.9694 40.0008 25.4745 40.0008 19.9869C40.0008 14.4984 39.9884 9.01372 39.9615 8.66903C39.8353 7.06273 39.5599 5.98254 38.9994 4.84112C38.5395 3.90652 38.0288 3.20852 37.2874 2.49494C35.9643 1.23092 34.3462 0.461556 32.4179 0.183383C31.4836 0.048227 31.2976 0.00831496 26.5168 0H20.0072Z" fill="url(#paint1_radial_54_255)"/>
<path d="M20.0072 0C11.6575 0 9.21548 0.00861724 8.74077 0.0479243C7.02728 0.190488 5.961 0.460346 4.79948 1.03877C3.90418 1.48354 3.19817 1.99892 2.50137 2.72141C1.23236 4.03911 0.463301 5.66022 0.184825 7.58702C0.049518 8.52253 0.0100597 8.71332 0.00219832 13.4916C-0.000825298 15.0844 0.00219832 17.1804 0.00219832 19.9922C0.00219832 28.3374 0.0112699 30.7776 0.0513329 31.2516C0.189815 32.9194 0.451207 33.9687 1.00498 35.1165C2.06325 37.3136 4.08454 38.963 6.46565 39.5785C7.29004 39.7907 8.2006 39.9077 9.36953 39.9631C9.86495 39.9845 14.9132 40 19.9645 40C25.0159 40 30.0673 39.9939 30.5502 39.9693C31.9038 39.9055 32.6898 39.7999 33.559 39.5753C35.9553 38.9569 37.9396 37.3321 39.0195 35.1043C39.5624 33.984 39.8377 32.8947 39.9622 31.3141C39.9895 30.9694 40.0008 25.4745 40.0008 19.9869C40.0008 14.4984 39.9884 9.01372 39.9615 8.66903C39.8353 7.06273 39.5599 5.98254 38.9994 4.84112C38.5395 3.90652 38.0288 3.20852 37.2874 2.49494C35.9643 1.23092 34.3462 0.461556 32.4179 0.183383C31.4836 0.048227 31.2976 0.00831496 26.5168 0H20.0072Z" fill="url(#paint2_radial_54_255)"/>
<path d="M20.0072 0C11.6575 0 9.21548 0.00861724 8.74077 0.0479243C7.02728 0.190488 5.961 0.460346 4.79948 1.03877C3.90418 1.48354 3.19817 1.99892 2.50137 2.72141C1.23236 4.03911 0.463301 5.66022 0.184825 7.58702C0.049518 8.52253 0.0100597 8.71332 0.00219832 13.4916C-0.000825298 15.0844 0.00219832 17.1804 0.00219832 19.9922C0.00219832 28.3374 0.0112699 30.7776 0.0513329 31.2516C0.189815 32.9194 0.451207 33.9687 1.00498 35.1165C2.06325 37.3136 4.08454 38.963 6.46565 39.5785C7.29004 39.7907 8.2006 39.9077 9.36953 39.9631C9.86495 39.9845 14.9132 40 19.9645 40C25.0159 40 30.0673 39.9939 30.5502 39.9693C31.9038 39.9055 32.6898 39.7999 33.559 39.5753C35.9553 38.9569 37.9396 37.3321 39.0195 35.1043C39.5624 33.984 39.8377 32.8947 39.9622 31.3141C39.9895 30.9694 40.0008 25.4745 40.0008 19.9869C40.0008 14.4984 39.9884 9.01372 39.9615 8.66903C39.8353 7.06273 39.5599 5.98254 38.9994 4.84112C38.5395 3.90652 38.0288 3.20852 37.2874 2.49494C35.9643 1.23092 34.3462 0.461556 32.4179 0.183383C31.4836 0.048227 31.2976 0.00831496 26.5168 0H20.0072Z" fill="url(#paint3_radial_54_255)"/>
<path d="M20.0081 5.13605C15.9691 5.13605 15.4622 5.15374 13.8758 5.22585C12.2925 5.29826 11.2119 5.54877 10.2662 5.91629C9.2881 6.29576 8.45827 6.80357 7.63161 7.62993C6.80435 8.45598 6.29623 9.28506 5.9151 10.2623C5.54637 11.2075 5.29541 12.2877 5.2242 13.8692C5.15315 15.4543 5.13455 15.9612 5.13455 19.9973C5.13455 24.0334 5.15269 24.5383 5.2245 26.1235C5.29722 27.7056 5.54803 28.7856 5.9154 29.7305C6.29562 30.7079 6.80374 31.5371 7.6307 32.363C8.45706 33.1897 9.28674 33.6987 10.2643 34.0783C11.2107 34.4458 12.2916 34.6963 13.8745 34.7688C15.461 34.8409 15.9676 34.8586 20.0064 34.8586C24.0456 34.8586 24.5509 34.8409 26.1374 34.7688C27.7207 34.6962 28.8027 34.4458 29.749 34.0783C30.7268 33.6988 31.5553 33.1897 32.3816 32.363C33.2089 31.5371 33.717 30.7079 34.0981 29.7308C34.4637 28.7856 34.7146 27.7053 34.789 26.1238C34.8604 24.5386 34.8788 24.0334 34.8788 19.9973C34.8788 15.9612 34.8604 15.4548 34.789 13.8695C34.7146 12.2874 34.4637 11.2075 34.0981 10.2626C33.717 9.28506 33.2089 8.45598 32.3816 7.62993C31.5544 6.80327 30.7271 6.29546 29.748 5.91629C28.7998 5.54877 27.7184 5.29826 26.1353 5.22585C24.5489 5.15374 24.0438 5.13605 20.0035 5.13605H20.0081ZM18.674 7.81422C19.07 7.81346 19.5117 7.81422 20.0082 7.81422C23.9791 7.81422 24.4498 7.82843 26.0178 7.89964C27.4678 7.96586 28.2548 8.20805 28.7791 8.41139C29.473 8.68079 29.968 9.00281 30.4882 9.52287C31.0087 10.0429 31.3309 10.5384 31.6011 11.232C31.8047 11.7551 32.0472 12.5415 32.1133 13.9906C32.1845 15.5571 32.2001 16.0277 32.2001 19.994C32.2001 23.9599 32.1845 24.4305 32.1133 25.9972C32.0469 27.4461 31.8047 28.2326 31.6011 28.7558C31.3315 29.4493 31.0087 29.9432 30.4882 30.463C29.9677 30.983 29.4735 31.305 28.7791 31.5744C28.2554 31.7788 27.4678 32.0204 26.0178 32.0867C24.4501 32.1577 23.9791 32.1733 20.0082 32.1733C16.037 32.1733 15.5663 32.1579 13.9985 32.0867C12.5485 32.0197 11.7614 31.7776 11.237 31.5741C10.5429 31.3049 10.0472 30.9829 9.52667 30.4627C9.006 29.9426 8.68383 29.4484 8.41367 28.7546C8.21003 28.2314 7.96754 27.4449 7.90147 25.996C7.83026 24.4293 7.8159 23.9587 7.8159 19.9902C7.8159 16.0217 7.83026 15.5535 7.90147 13.9868C7.96784 12.5379 8.21003 11.7514 8.41367 11.2276C8.68323 10.5341 9.006 10.0387 9.52667 9.51849C10.0472 8.99842 10.5429 8.67641 11.237 8.4064C11.7611 8.20215 12.5485 7.96056 13.9985 7.89389C15.3704 7.83206 15.9021 7.81346 18.674 7.81044V7.81422ZM27.9469 10.2818C26.9616 10.2818 26.1622 11.0796 26.1622 12.0645C26.1622 13.049 26.9616 13.8479 27.9469 13.8479C28.9321 13.8479 29.7316 13.049 29.7316 12.0645C29.7316 11.0799 28.9321 10.281 27.9469 10.281V10.2818ZM20.0081 12.3654C15.7901 12.3654 12.3704 15.7825 12.3704 19.9973C12.3704 24.2119 15.7901 27.6276 20.0081 27.6276C24.2259 27.6276 27.6442 24.2119 27.6442 19.9973C27.6442 15.7825 24.2256 12.3654 20.0077 12.3654H20.0081ZM20.0081 15.0436C22.7458 15.0436 24.9654 17.2614 24.9654 19.9973C24.9654 22.7329 22.7458 24.9511 20.0081 24.9511C17.27 24.9511 15.0505 22.7329 15.0505 19.9973C15.0505 17.2612 17.2699 15.0436 20.0081 15.0436Z" fill="white"/>
</g>
<defs>
<radialGradient id="paint0_radial_54_255" cx="0" cy="0" r="1" gradientUnits="userSpaceOnUse" gradientTransform="translate(38.7091 18.7484) rotate(164.25) scale(25.5577 18.4131)">
<stop stop-color="#FF005F"/>
<stop offset="1" stop-color="#FC01D8"/>
</radialGradient>
<radialGradient id="paint1_radial_54_255" cx="0" cy="0" r="1" gradientUnits="userSpaceOnUse" gradientTransform="translate(10.6255 43.0809) rotate(-90) scale(31.9288 33.8757)">
<stop stop-color="#FFCC00"/>
<stop offset="0.124161" stop-color="#FFCC00"/>
<stop offset="0.567196" stop-color="#FE4A05"/>
<stop offset="0.694203" stop-color="#FF0F3F"/>
<stop offset="1" stop-color="#FE0657" stop-opacity="0"/>
</radialGradient>
<radialGradient id="paint2_radial_54_255" cx="0" cy="0" r="1" gradientUnits="userSpaceOnUse" gradientTransform="translate(21.0115 39.4359) rotate(-59.8703) scale(13.2028 17.1886)">
<stop stop-color="#FFCC00"/>
<stop offset="1" stop-color="#FFCC00" stop-opacity="0"/>
</radialGradient>
<radialGradient id="paint3_radial_54_255" cx="0" cy="0" r="1" gradientUnits="userSpaceOnUse" gradientTransform="translate(5.42795 1.62885) rotate(164.274) scale(25.2742 8.61091)">
<stop stop-color="#780CFF"/>
<stop offset="1" stop-color="#820BFF" stop-opacity="0"/>
</radialGradient>
<clipPath id="clip0_54_255">
<rect width="40" height="40" fill="white"/>
</clipPath>
</defs>
</svg>
