<svg width="16" height="22" viewBox="0 0 16 22" fill="none" xmlns="http://www.w3.org/2000/svg">
<g clip-path="url(#clip0_32_400)">
<path d="M8.00027 0C3.58853 0 0 3.611 0 8.05035C0 12.4897 7.12165 21.3389 7.42482 21.7217C7.56442 21.8981 7.77595 22.0005 7.99973 22.0005C8.22352 22.0005 8.43505 21.8981 8.57464 21.7217C8.87782 21.3389 15.9995 12.2978 15.9995 8.05035C15.9995 3.80294 12.4115 0 8.00027 0ZM8.00027 20.057C5.75444 17.1022 1.47058 10.8818 1.47058 8.05035C1.47058 4.42756 4.39948 1.47978 8.00027 1.47978C11.6011 1.47978 14.53 4.42702 14.53 8.05035C14.53 10.8818 10.2461 17.1022 8.00027 20.057Z" fill="#212121"/>
</g>
<defs>
<clipPath id="clip0_32_400">
<rect width="16" height="22" fill="white"/>
</clipPath>
</defs>
</svg>
