<svg width="215" height="36" viewBox="0 0 215 36" fill="none" xmlns="http://www.w3.org/2000/svg">
<path d="M61.6434 30.5467L65.0586 34.3902H63.8239L60.9762 31.2711L60.4386 31.8647V34.4002H59.4528V27.0453H60.4386V30.4964L63.565 27.0453H64.8296L61.6334 30.5567L61.6434 30.5467Z" fill="#00133F"/>
<path d="M67.3985 29.0978C67.727 29.0978 68.0556 29.1682 68.3543 29.3192C68.663 29.46 68.9219 29.6613 69.1409 29.9027C69.36 30.1442 69.5392 30.4259 69.6686 30.758C69.7981 31.09 69.8578 31.4421 69.8578 31.8144C69.8578 32.1867 69.7981 32.5288 69.6686 32.8508C69.5392 33.1828 69.3699 33.4746 69.1509 33.7261C68.9219 33.9575 68.653 34.1487 68.3543 34.2896C68.0556 34.4304 67.737 34.5008 67.3985 34.5008C67.0599 34.5008 66.7413 34.4304 66.4326 34.2896C66.1339 34.1487 65.8651 33.9676 65.6361 33.7261C65.417 33.4746 65.2378 33.1828 65.1183 32.8508C64.9988 32.5187 64.9391 32.1766 64.9391 31.8144C64.9391 31.4522 64.9988 31.0799 65.1183 30.758C65.2378 30.4259 65.4071 30.1442 65.6361 29.9027C65.8551 29.6512 66.124 29.46 66.4326 29.3192C66.7413 29.1682 67.0599 29.0978 67.3985 29.0978ZM68.8721 31.8044C68.8721 31.5428 68.8323 31.3013 68.7626 31.0799C68.6929 30.8586 68.5833 30.6674 68.4539 30.5064C68.3145 30.3454 68.1552 30.2146 67.976 30.1241C67.7967 30.0335 67.5976 29.9832 67.3985 29.9832C67.1993 29.9832 67.0002 30.0335 66.821 30.1241C66.6417 30.2146 66.4824 30.3454 66.343 30.5064C66.2036 30.6674 66.1041 30.8586 66.0344 31.0799C65.9647 31.3013 65.9248 31.5428 65.9248 31.8044C65.9248 32.066 65.9647 32.3074 66.0344 32.5288C66.1041 32.7501 66.2136 32.9413 66.343 33.1023C66.4824 33.2633 66.6417 33.3941 66.821 33.4846C67.0002 33.5752 67.1993 33.6255 67.3985 33.6255C67.5976 33.6255 67.7967 33.5752 67.976 33.4846C68.1552 33.3941 68.3145 33.2633 68.4539 33.1023C68.5933 32.9413 68.6929 32.7501 68.7626 32.5288C68.8323 32.3074 68.8721 32.066 68.8721 31.8044Z" fill="#00133F"/>
<path d="M70.7938 29.2286H71.7198V29.8927C71.8492 29.6914 72.0384 29.5103 72.2973 29.3594C72.6259 29.1582 73.0241 29.0676 73.5021 29.0978V30.1342C72.9445 30.0939 72.5064 30.2448 72.1878 30.5769C71.9189 30.8586 71.7795 31.3013 71.7795 31.905V34.4002H70.7938V29.2286Z" fill="#00133F"/>
<path d="M77.4948 32.7099H78.4905C78.4208 33.2633 78.1519 33.706 77.6939 34.0481C77.2658 34.36 76.748 34.5109 76.1406 34.5109C75.4238 34.5109 74.8463 34.2694 74.3982 33.7865C73.9501 33.3035 73.7311 32.6696 73.7311 31.8647C73.7311 31.0095 73.9601 30.3354 74.4181 29.8323C74.8761 29.3393 75.4437 29.0878 76.1207 29.0878C76.8376 29.0878 77.4052 29.3292 77.8234 29.8122C78.2416 30.2951 78.4507 30.9894 78.4507 31.8949V32.076H74.7268C74.7367 32.5388 74.8761 32.9111 75.135 33.1828C75.4038 33.4645 75.7424 33.6054 76.1406 33.6054C76.4891 33.6054 76.7679 33.5349 76.977 33.4041C77.2658 33.213 77.4351 32.9816 77.4948 32.6998V32.7099ZM77.4052 31.2812C77.4052 30.9592 77.2957 30.6775 77.1065 30.4259C76.8775 30.1241 76.5489 29.9732 76.1108 29.9732C75.7523 29.9732 75.4536 30.0939 75.2047 30.3354C74.9558 30.5769 74.8064 30.8988 74.7566 31.2812H77.4052Z" fill="#00133F"/>
<path d="M82.6525 33.8569C82.2243 34.2896 81.6568 34.5008 80.9499 34.5109C80.3923 34.5109 79.9542 34.3801 79.6654 34.0984C79.3667 33.8167 79.2173 33.4343 79.2173 32.9614C79.2173 32.408 79.4165 31.9754 79.8148 31.6836C80.1433 31.4421 80.5914 31.3013 81.1589 31.2409C82.0451 31.1604 82.5131 31.0598 82.5629 30.9491V30.6674C82.5629 30.4762 82.4932 30.3153 82.3637 30.1744C82.2243 30.0335 81.9854 29.9631 81.6568 29.9631H81.5473C81.2685 29.9631 81.0395 30.0235 80.8503 30.1543C80.6611 30.2951 80.5217 30.4964 80.4221 30.758H79.4165C79.5061 30.1744 79.8247 29.7216 80.3823 29.3896C80.7109 29.1984 81.0892 29.0978 81.5174 29.0978H81.7265C82.304 29.0978 82.7521 29.2487 83.0707 29.5606C83.3793 29.8625 83.5387 30.2448 83.5387 30.6875V32.6093C83.5387 32.9212 83.5586 33.2331 83.5984 33.545C83.6382 33.8569 83.698 34.1386 83.7776 34.3801H82.7819C82.7222 34.1688 82.6824 33.9877 82.6624 33.8569H82.6525ZM82.5728 31.7641C82.4235 31.8647 82.0053 31.9553 81.3183 32.0358C80.9698 32.0861 80.7408 32.1364 80.6213 32.2068C80.5018 32.2772 80.4022 32.3678 80.3226 32.4986C80.2529 32.5992 80.223 32.7602 80.223 32.9816C80.223 33.1928 80.2927 33.3538 80.4321 33.4746C80.5715 33.5953 80.8005 33.6557 81.1291 33.6557C81.4577 33.6557 81.7962 33.545 82.1248 33.3236C82.4135 33.1325 82.5629 32.9111 82.5629 32.6395V31.7541L82.5728 31.7641Z" fill="#00133F"/>
<path d="M92.48 31.6031H93.4757C93.4557 32.3577 93.1869 33.0419 92.6692 33.6356C92.1514 34.2292 91.4544 34.531 90.5981 34.531C89.8812 34.531 89.2938 34.3499 88.8357 33.9877C88.3777 33.6255 88.0392 33.1727 87.8201 32.6294C87.6011 32.066 87.4916 31.422 87.4916 30.7077C87.4916 30.0335 87.611 29.3997 87.84 28.796C88.079 28.2023 88.4673 27.7093 89.005 27.327C89.4033 27.0453 89.9509 26.8944 90.6379 26.8944C91.4345 26.8944 92.0917 27.156 92.6094 27.6892C93.1272 28.2225 93.406 28.8362 93.4358 29.5506H92.4401C92.3406 28.9972 92.1215 28.5646 91.773 28.2728C91.4245 27.981 91.0362 27.8301 90.6081 27.8301C90.1102 27.8301 89.702 27.9609 89.3834 28.2225C89.0647 28.4841 88.8258 28.8362 88.6764 29.2789C88.537 29.6814 88.4673 30.1543 88.4673 30.6976C88.4673 31.2409 88.547 31.7742 88.7163 32.2068C88.8756 32.6495 89.1245 32.9816 89.4431 33.2029C89.8115 33.4544 90.1799 33.5852 90.5782 33.5852C91.086 33.5852 91.5241 33.4041 91.8925 33.0319C92.2609 32.6596 92.4501 32.1867 92.4899 31.6031H92.48Z" fill="#00133F"/>
<path d="M96.632 29.0978C96.9606 29.0978 97.2892 29.1682 97.5879 29.3192C97.8965 29.46 98.1554 29.6613 98.3745 29.9027C98.5935 30.1442 98.7728 30.4259 98.9022 30.758C99.0316 31.09 99.0914 31.4421 99.0914 31.8144C99.0914 32.1867 99.0316 32.5288 98.9022 32.8508C98.7728 33.1828 98.6035 33.4746 98.3844 33.7261C98.1554 33.9575 97.8866 34.1487 97.5879 34.2896C97.2892 34.4304 96.9706 34.5008 96.632 34.5008C96.2935 34.5008 95.9749 34.4304 95.6662 34.2896C95.3675 34.1487 95.0986 33.9676 94.8696 33.7261C94.6506 33.4746 94.4714 33.1828 94.3519 32.8508C94.2324 32.5187 94.1727 32.1766 94.1727 31.8144C94.1727 31.4522 94.2324 31.0799 94.3519 30.758C94.4714 30.4259 94.6406 30.1442 94.8696 29.9027C95.0887 29.6512 95.3575 29.46 95.6662 29.3192C95.9749 29.1682 96.2935 29.0978 96.632 29.0978ZM98.1056 31.8044C98.1056 31.5428 98.0658 31.3013 97.9961 31.0799C97.9264 30.8586 97.8169 30.6674 97.6874 30.5064C97.548 30.3454 97.3887 30.2146 97.2095 30.1241C97.0303 30.0335 96.8312 29.9832 96.632 29.9832C96.4329 29.9832 96.2337 30.0335 96.0545 30.1241C95.8753 30.2146 95.716 30.3454 95.5766 30.5064C95.4372 30.6674 95.3376 30.8586 95.2679 31.0799C95.1982 31.3013 95.1584 31.5428 95.1584 31.8044C95.1584 32.066 95.1982 32.3074 95.2679 32.5288C95.3376 32.7501 95.4471 32.9413 95.5766 33.1023C95.716 33.2633 95.8753 33.3941 96.0545 33.4846C96.2337 33.5752 96.4329 33.6255 96.632 33.6255C96.8312 33.6255 97.0303 33.5752 97.2095 33.4846C97.3887 33.3941 97.548 33.2633 97.6874 33.1023C97.8268 32.9413 97.9264 32.7501 97.9961 32.5288C98.0658 32.3074 98.1056 32.066 98.1056 31.8044Z" fill="#00133F"/>
<path d="M100.037 34.3902V29.2286H100.953V29.8625C101.043 29.7116 101.212 29.5405 101.461 29.3795C101.73 29.1984 102.039 29.1079 102.387 29.1079C103.074 29.1079 103.562 29.3494 103.841 29.8222C104.07 30.1845 104.179 30.6976 104.179 31.3617V34.4002H103.194V31.4824C103.194 30.929 103.114 30.5467 102.945 30.3454C102.785 30.1442 102.546 30.0537 102.238 30.0537C101.909 30.0537 101.62 30.2046 101.372 30.4964C101.123 30.7982 101.003 31.2208 101.003 31.7842V34.4002H100.017L100.037 34.3902Z" fill="#00133F"/>
<path d="M104.906 32.6697H105.902C105.962 33.0017 106.111 33.2432 106.36 33.4142C106.609 33.5752 106.878 33.6557 107.186 33.6557C107.575 33.6557 107.853 33.5953 108.033 33.4746C108.212 33.3538 108.302 33.1928 108.302 33.0017C108.302 32.7703 108.212 32.6093 108.043 32.5087C107.903 32.4282 107.644 32.3276 107.276 32.2269C106.908 32.1263 106.609 32.0458 106.38 31.9855C106.031 31.8949 105.733 31.744 105.494 31.5428C105.245 31.3315 105.115 31.0196 105.115 30.607C105.115 30.1442 105.295 29.7719 105.663 29.5003C106.031 29.2186 106.479 29.0777 107.037 29.0777C107.435 29.0777 107.764 29.1381 108.033 29.2487C108.302 29.3594 108.531 29.5305 108.72 29.7418C108.969 30.0235 109.098 30.3857 109.118 30.8083H108.152C108.122 30.5064 108.013 30.2951 107.834 30.1543C107.654 30.0134 107.405 29.953 107.107 29.953C106.728 29.953 106.469 30.0134 106.31 30.1342C106.161 30.2549 106.081 30.3958 106.081 30.5668C106.081 30.8083 106.201 30.9693 106.43 31.0598C106.659 31.1504 106.908 31.2309 107.196 31.3113C107.475 31.3918 107.724 31.4522 107.923 31.5025C108.481 31.6434 108.859 31.8446 109.058 32.1263C109.218 32.3577 109.297 32.6395 109.297 32.9614C109.297 33.2432 109.208 33.5048 109.028 33.7663C108.849 34.028 108.59 34.2191 108.272 34.3399C107.963 34.4606 107.605 34.5109 107.196 34.5109C106.599 34.5109 106.081 34.3499 105.663 34.038C105.235 33.716 104.996 33.2633 104.936 32.6596L104.906 32.6697Z" fill="#00133F"/>
<path d="M112.454 33.4947V34.3902H111.757C111.259 34.3902 110.91 34.2694 110.711 34.028C110.532 33.8167 110.442 33.5148 110.442 33.1124V30.1241H109.586V29.2286H110.442V27.498H111.428V29.2286H112.454V30.1241H111.428V33.052C111.428 33.3438 111.567 33.4947 111.856 33.4947H112.454Z" fill="#00133F"/>
<path d="M113.29 29.2286H114.216V29.8927C114.345 29.6914 114.535 29.5103 114.793 29.3594C115.122 29.1582 115.52 29.0676 115.998 29.0978V30.1342C115.441 30.0939 115.003 30.2448 114.684 30.5769C114.415 30.8586 114.276 31.3013 114.276 31.905V34.4002H113.29V29.2286Z" fill="#00133F"/>
<path d="M120.738 29.2286V34.3902H119.832V33.7764C119.732 33.9374 119.573 34.0984 119.344 34.2392C119.065 34.4203 118.746 34.5109 118.368 34.5109C117.771 34.5109 117.293 34.2895 116.954 33.8468C116.715 33.545 116.596 33.0319 116.596 32.3074V29.2186H117.581V32.2269C117.581 32.7602 117.671 33.1124 117.85 33.3035C118.029 33.4846 118.249 33.5852 118.507 33.5852C118.806 33.5852 119.085 33.4343 119.364 33.1224C119.633 32.8105 119.772 32.398 119.772 31.8849V29.2286H120.758H120.738Z" fill="#00133F"/>
<path d="M125.248 32.4584H126.234C126.224 33.0721 125.985 33.5852 125.537 33.9776C125.129 34.3298 124.601 34.5109 123.964 34.5109C123.327 34.5109 122.739 34.2694 122.301 33.7764C121.863 33.2935 121.644 32.6395 121.644 31.8345C121.644 31.3013 121.733 30.8385 121.913 30.4461C122.092 30.0537 122.361 29.7317 122.719 29.4802C123.088 29.2286 123.496 29.0978 123.974 29.0978C124.621 29.0978 125.129 29.2789 125.517 29.6512C125.915 30.0235 126.124 30.4762 126.164 30.9894H125.188C125.119 30.6674 124.989 30.4159 124.78 30.2448C124.571 30.0738 124.302 29.9832 123.974 29.9832C123.575 29.9832 123.257 30.1442 122.998 30.4662C122.749 30.7882 122.62 31.2409 122.62 31.8144C122.62 32.3879 122.749 32.8608 123.018 33.1526C123.287 33.4444 123.605 33.5953 123.974 33.5953C124.322 33.5953 124.601 33.4947 124.83 33.3035C125.089 33.0721 125.228 32.7904 125.248 32.4382V32.4584Z" fill="#00133F"/>
<path d="M129.49 33.4947V34.3902H128.793C128.295 34.3902 127.947 34.2694 127.747 34.028C127.568 33.8167 127.479 33.5148 127.479 33.1124V30.1241H126.622V29.2286H127.479V27.498H128.464V29.2286H129.49V30.1241H128.464V33.052C128.464 33.3438 128.604 33.4947 128.892 33.4947H129.49Z" fill="#00133F"/>
<path d="M130.346 28.2929V27.005H131.382V28.2929H130.346ZM130.376 34.3902V29.2286H131.362V34.3902H130.376Z" fill="#00133F"/>
<path d="M134.817 29.0978C135.145 29.0978 135.474 29.1682 135.773 29.3192C136.081 29.46 136.34 29.6613 136.559 29.9027C136.778 30.1442 136.958 30.4259 137.087 30.758C137.216 31.09 137.276 31.4421 137.276 31.8144C137.276 32.1867 137.216 32.5288 137.087 32.8508C136.958 33.1828 136.788 33.4746 136.569 33.7261C136.34 33.9575 136.071 34.1487 135.773 34.2896C135.474 34.4304 135.155 34.5008 134.817 34.5008C134.478 34.5008 134.16 34.4304 133.851 34.2896C133.552 34.1487 133.283 33.9676 133.054 33.7261C132.835 33.4746 132.656 33.1828 132.537 32.8508C132.417 32.5187 132.357 32.1766 132.357 31.8144C132.357 31.4522 132.417 31.0799 132.537 30.758C132.656 30.4259 132.825 30.1442 133.054 29.9027C133.274 29.6512 133.542 29.46 133.851 29.3192C134.16 29.1682 134.478 29.0978 134.817 29.0978ZM136.29 31.8044C136.29 31.5428 136.251 31.3013 136.181 31.0799C136.111 30.8586 136.002 30.6674 135.872 30.5064C135.733 30.3454 135.574 30.2146 135.394 30.1241C135.215 30.0335 135.016 29.9832 134.817 29.9832C134.618 29.9832 134.419 30.0335 134.239 30.1241C134.06 30.2146 133.901 30.3454 133.761 30.5064C133.622 30.6674 133.522 30.8586 133.453 31.0799C133.383 31.3013 133.343 31.5428 133.343 31.8044C133.343 32.066 133.383 32.3074 133.453 32.5288C133.522 32.7501 133.632 32.9413 133.761 33.1023C133.901 33.2633 134.06 33.3941 134.239 33.4846C134.419 33.5752 134.618 33.6255 134.817 33.6255C135.016 33.6255 135.215 33.5752 135.394 33.4846C135.574 33.3941 135.733 33.2633 135.872 33.1023C136.012 32.9413 136.111 32.7501 136.181 32.5288C136.251 32.3074 136.29 32.066 136.29 31.8044Z" fill="#00133F"/>
<path d="M138.212 34.3902V29.2286H139.128V29.8625C139.218 29.7116 139.387 29.5405 139.636 29.3795C139.905 29.1984 140.214 29.1079 140.562 29.1079C141.249 29.1079 141.737 29.3494 142.016 29.8222C142.245 30.1845 142.354 30.6976 142.354 31.3617V34.4002H141.368V31.4824C141.368 30.929 141.289 30.5467 141.12 30.3454C140.96 30.1442 140.721 30.0537 140.413 30.0537C140.084 30.0537 139.795 30.2046 139.546 30.4964C139.297 30.7982 139.178 31.2208 139.178 31.7842V34.4002H138.192L138.212 34.3902Z" fill="#00133F"/>
<path d="M146.387 34.3902V27.0352H147.373V34.3902H146.387Z" fill="#00133F"/>
<path d="M148.717 34.3902V29.2286H149.633V29.8625C149.722 29.7116 149.892 29.5405 150.141 29.3795C150.409 29.1984 150.718 29.1079 151.067 29.1079C151.754 29.1079 152.241 29.3494 152.52 29.8222C152.749 30.1845 152.859 30.6976 152.859 31.3617V34.4002H151.873V31.4824C151.873 30.929 151.793 30.5467 151.624 30.3454C151.465 30.1442 151.226 30.0537 150.917 30.0537C150.589 30.0537 150.3 30.2046 150.051 30.4964C149.802 30.7982 149.683 31.2208 149.683 31.7842V34.4002H148.697L148.717 34.3902Z" fill="#00133F"/>
<path d="M157.18 34.3902V33.9273C156.871 34.3097 156.453 34.5109 155.926 34.521C155.288 34.531 154.751 34.2996 154.342 33.8066C153.924 33.3236 153.725 32.6395 153.725 31.7541C153.725 30.9693 153.894 30.3555 154.233 29.9128C154.661 29.3494 155.219 29.0777 155.906 29.1079C156.423 29.128 156.832 29.3292 157.16 29.7216V27.0151H158.146V34.3902H157.18ZM157.16 31.7641C157.16 31.1001 157.011 30.6171 156.712 30.3253C156.493 30.104 156.224 29.9933 155.916 29.9933C155.557 29.9933 155.268 30.1442 155.039 30.4561C154.81 30.768 154.701 31.2007 154.701 31.7641C154.701 32.4081 154.82 32.8809 155.049 33.1828C155.288 33.4746 155.567 33.6255 155.916 33.6255C156.384 33.6255 156.732 33.4041 156.961 32.9614C157.09 32.7099 157.16 32.3175 157.16 31.7641Z" fill="#00133F"/>
<path d="M163.343 29.2286V34.3902H162.437V33.7764C162.338 33.9374 162.178 34.0984 161.949 34.2392C161.671 34.4203 161.352 34.5109 160.974 34.5109C160.376 34.5109 159.898 34.2895 159.56 33.8468C159.321 33.545 159.201 33.0319 159.201 32.3074V29.2186H160.187V32.2269C160.187 32.7602 160.277 33.1124 160.456 33.3035C160.635 33.4846 160.854 33.5852 161.123 33.5852C161.422 33.5852 161.701 33.4343 161.979 33.1224C162.248 32.8105 162.388 32.398 162.388 31.8849V29.2286H163.373H163.343Z" fill="#00133F"/>
<path d="M164.16 32.6697H165.156C165.215 33.0017 165.365 33.2432 165.614 33.4142C165.863 33.5752 166.131 33.6557 166.44 33.6557C166.828 33.6557 167.107 33.5953 167.286 33.4746C167.466 33.3538 167.555 33.1928 167.555 33.0017C167.555 32.7703 167.466 32.6093 167.296 32.5087C167.157 32.4282 166.898 32.3276 166.53 32.2269C166.161 32.1263 165.863 32.0458 165.634 31.9855C165.285 31.8949 164.986 31.744 164.747 31.5428C164.498 31.3315 164.369 31.0196 164.369 30.607C164.369 30.1442 164.548 29.7719 164.917 29.5003C165.285 29.2186 165.733 29.0777 166.291 29.0777C166.689 29.0777 167.018 29.1381 167.286 29.2487C167.555 29.3594 167.784 29.5305 167.973 29.7418C168.222 30.0235 168.352 30.3857 168.372 30.8083H167.406C167.376 30.5064 167.266 30.2951 167.087 30.1543C166.908 30.0134 166.659 29.953 166.36 29.953C165.982 29.953 165.723 30.0134 165.564 30.1342C165.414 30.2549 165.335 30.3958 165.335 30.5668C165.335 30.8083 165.454 30.9693 165.683 31.0598C165.912 31.1504 166.161 31.2309 166.45 31.3113C166.729 31.3918 166.978 31.4522 167.177 31.5025C167.734 31.6434 168.113 31.8446 168.312 32.1263C168.471 32.3577 168.551 32.6395 168.551 32.9614C168.551 33.2432 168.461 33.5048 168.282 33.7663C168.103 34.028 167.844 34.2191 167.525 34.3399C167.217 34.4606 166.858 34.5109 166.45 34.5109C165.853 34.5109 165.335 34.3499 164.917 34.038C164.489 33.716 164.25 33.2633 164.19 32.6596L164.16 32.6697Z" fill="#00133F"/>
<path d="M171.707 33.4947V34.3902H171.01C170.512 34.3902 170.164 34.2694 169.965 34.028C169.786 33.8167 169.696 33.5148 169.696 33.1124V30.1241H168.84V29.2286H169.696V27.498H170.682V29.2286H171.707V30.1241H170.682V33.052C170.682 33.3438 170.821 33.4947 171.11 33.4947H171.707Z" fill="#00133F"/>
<path d="M172.544 29.2286H173.47V29.8927C173.599 29.6914 173.788 29.5103 174.047 29.3594C174.376 29.1582 174.774 29.0676 175.252 29.0978V30.1342C174.694 30.0939 174.256 30.2448 173.938 30.5769C173.669 30.8586 173.529 31.3013 173.529 31.905V34.4002H172.544V29.2286Z" fill="#00133F"/>
<path d="M177.144 34.7121L177.363 34.1084L175.461 29.2286H176.467L177.831 32.8407L179.165 29.2286H180.161L177.881 35.185C177.671 35.7283 177.303 36 176.785 36C176.516 36 176.278 36 176.088 35.9497V35.1146C176.218 35.1548 176.377 35.1649 176.556 35.1649C176.835 35.1548 177.024 35.0039 177.134 34.7121H177.144Z" fill="#00133F"/>
<path d="M187.031 32.4584H188.017C188.007 33.0721 187.768 33.5852 187.32 33.9776C186.912 34.3298 186.384 34.5109 185.747 34.5109C185.109 34.5109 184.522 34.2694 184.084 33.7764C183.646 33.2935 183.427 32.6395 183.427 31.8345C183.427 31.3013 183.516 30.8385 183.695 30.4461C183.875 30.0537 184.143 29.7317 184.502 29.4802C184.87 29.2286 185.279 29.0978 185.757 29.0978C186.394 29.0978 186.912 29.2789 187.3 29.6512C187.698 30.0235 187.907 30.4762 187.947 30.9894H186.971C186.902 30.6674 186.772 30.4159 186.563 30.2448C186.354 30.0738 186.085 29.9832 185.757 29.9832C185.358 29.9832 185.04 30.1442 184.781 30.4662C184.532 30.7882 184.402 31.2409 184.402 31.8144C184.402 32.3879 184.532 32.8608 184.801 33.1526C185.069 33.4444 185.388 33.5953 185.757 33.5953C186.105 33.5953 186.384 33.4947 186.613 33.3035C186.872 33.0721 187.011 32.7904 187.031 32.4382V32.4584Z" fill="#00133F"/>
<path d="M191.173 29.0978C191.502 29.0978 191.83 29.1682 192.129 29.3192C192.438 29.46 192.696 29.6613 192.916 29.9027C193.135 30.1442 193.314 30.4259 193.443 30.758C193.573 31.09 193.632 31.4421 193.632 31.8144C193.632 32.1867 193.573 32.5288 193.443 32.8508C193.314 33.1828 193.145 33.4746 192.925 33.7261C192.696 33.9575 192.428 34.1487 192.129 34.2896C191.83 34.4304 191.512 34.5008 191.173 34.5008C190.835 34.5008 190.516 34.4304 190.207 34.2896C189.909 34.1487 189.64 33.9676 189.411 33.7261C189.192 33.4746 189.012 33.1828 188.893 32.8508C188.773 32.5187 188.714 32.1766 188.714 31.8144C188.714 31.4522 188.773 31.0799 188.893 30.758C189.012 30.4259 189.182 30.1442 189.411 29.9027C189.63 29.6512 189.899 29.46 190.207 29.3192C190.516 29.1682 190.835 29.0978 191.173 29.0978ZM192.647 31.8044C192.647 31.5428 192.607 31.3013 192.537 31.0799C192.467 30.8586 192.358 30.6674 192.229 30.5064C192.089 30.3454 191.93 30.2146 191.751 30.1241C191.571 30.0335 191.372 29.9832 191.173 29.9832C190.974 29.9832 190.775 30.0335 190.596 30.1241C190.416 30.2146 190.257 30.3454 190.118 30.5064C189.978 30.6674 189.879 30.8586 189.809 31.0799C189.739 31.3013 189.699 31.5428 189.699 31.8044C189.699 32.066 189.739 32.3074 189.809 32.5288C189.879 32.7501 189.988 32.9413 190.118 33.1023C190.257 33.2633 190.416 33.3941 190.596 33.4846C190.775 33.5752 190.974 33.6255 191.173 33.6255C191.372 33.6255 191.571 33.5752 191.751 33.4846C191.93 33.3941 192.089 33.2633 192.229 33.1023C192.368 32.9413 192.467 32.7501 192.537 32.5288C192.607 32.3074 192.647 32.066 192.647 31.8044Z" fill="#00133F"/>
<path d="M194.668 34.5713V33.2532H195.923V34.5713H194.668Z" fill="#00133F"/>
<path d="M197.207 33.2532H198.462V34.3801C198.462 34.7624 198.342 35.0945 198.113 35.3661C197.884 35.6378 197.575 35.8088 197.207 35.8793V35.1649C197.376 35.1146 197.496 35.014 197.585 34.8731C197.675 34.7323 197.715 34.6115 197.715 34.521H197.207V33.2432V33.2532Z" fill="#00133F"/>
<path d="M202.504 34.3902V27.0151H203.49V34.3902H202.504Z" fill="#00133F"/>
<path d="M207.224 33.4947V34.3902H206.527C206.029 34.3902 205.68 34.2694 205.481 34.028C205.302 33.8167 205.212 33.5148 205.212 33.1124V30.1241H204.356V29.2286H205.212V27.498H206.198V29.2286H207.224V30.1241H206.198V33.052C206.198 33.3438 206.337 33.4947 206.626 33.4947H207.224Z" fill="#00133F"/>
<path d="M211.306 34.3902V33.9273C210.997 34.3097 210.579 34.5109 210.051 34.521C209.414 34.531 208.876 34.2996 208.468 33.8066C208.05 33.3236 207.851 32.6395 207.851 31.7541C207.851 30.9693 208.02 30.3555 208.359 29.9128C208.787 29.3494 209.344 29.0777 210.032 29.1079C210.549 29.128 210.957 29.3292 211.286 29.7216V27.0151H212.272V34.3902H211.306ZM211.286 31.7641C211.286 31.1001 211.137 30.6171 210.838 30.3253C210.619 30.104 210.35 29.9933 210.041 29.9933C209.683 29.9933 209.394 30.1442 209.165 30.4561C208.936 30.768 208.827 31.2007 208.827 31.7641C208.827 32.4081 208.946 32.8809 209.175 33.1828C209.414 33.4746 209.693 33.6255 210.041 33.6255C210.509 33.6255 210.858 33.4041 211.087 32.9614C211.216 32.7099 211.286 32.3175 211.286 31.7641Z" fill="#00133F"/>
<path d="M213.546 34.5713V33.2532H214.801V34.5713H213.546Z" fill="#00133F"/>
<path d="M9.67814 0.0402459H0V33.9273H9.67814V0.0402459Z" fill="#0095D5"/>
<path d="M45.5729 0.0402459H35.8947V33.9273H45.5729V0.0402459Z" fill="#00133F"/>
<path d="M17.2056 16.9033L34.8194 0.0402459H22.9806L10.5543 12.3958V21.7328L23.0403 33.9273H35.1181L17.2056 16.9033Z" fill="#ED1A2E"/>
<path d="M63.6347 22.1252C63.5352 22.1252 63.4456 22.1252 63.3759 22.1051C63.2863 22.085 63.2066 22.0145 63.1269 21.8837C61.9919 20.2236 61.0758 18.4528 60.4187 16.6417C59.7615 14.8206 59.423 12.9693 59.423 11.1179C59.423 9.26663 59.7615 7.4455 60.4187 5.63443C61.0758 3.83343 61.9919 2.07267 63.1269 0.392398C63.1966 0.291783 63.2564 0.231414 63.3062 0.181107C63.3659 0.120738 63.4655 0.100615 63.5949 0.100615H65.0387C65.2179 0.100615 65.427 0.120738 65.4668 0.27166C65.4967 0.372275 65.4668 0.513136 65.3473 0.734489C64.4612 2.52543 63.7443 4.31638 63.2166 6.06708C62.6888 7.80771 62.43 9.50811 62.43 11.1179C62.43 12.7278 62.6888 14.4483 63.1867 16.2292C63.6945 18.0201 64.4213 19.8111 65.3673 21.5517C65.4668 21.7328 65.4967 21.8636 65.4569 21.9642C65.3971 22.1151 65.188 22.1252 65.0387 22.1252H63.6347Z" fill="#00133F"/>
<path d="M74.1592 21.431C73.8306 21.431 73.6514 21.2398 73.6514 20.8876V14.0056H66.4227C66.2036 14.0056 66.0642 13.9452 65.9945 13.8144C65.9448 13.7138 65.9149 13.5729 65.9149 13.3918V11.8524C65.9149 11.6713 65.9448 11.5305 66.0045 11.4298C66.0742 11.3192 66.2136 11.2588 66.4227 11.2588H83.9071C84.2456 11.2588 84.4348 11.4701 84.4348 11.8524V13.3918C84.4348 13.9251 84.1062 14.0056 83.9071 14.0056H76.6783V20.8876C76.6783 21.2398 76.4991 21.431 76.1705 21.431H74.1592ZM68.2846 9.95081C68.205 9.95081 68.1452 9.94075 68.0955 9.91057C67.9959 9.86026 67.9162 9.74958 67.8366 9.55841L67.3288 8.07937C67.2591 7.87814 67.2591 7.71716 67.3288 7.58636C67.3885 7.46562 67.508 7.37507 67.6773 7.32476C68.5535 7.07323 69.4098 6.7915 70.2362 6.4796C71.0527 6.16769 71.8393 5.84572 72.5462 5.51369C73.2631 5.18167 73.9203 4.84964 74.4978 4.53773C75.0753 4.21576 75.5631 3.91392 75.9515 3.64226C76.2004 3.46115 76.1904 3.39072 76.1904 3.39072C76.1904 3.3706 76.1307 3.34041 75.9714 3.34041H69.3401C69.1608 3.34041 69.0414 3.31023 68.9617 3.22974C68.882 3.15931 68.8522 3.02851 68.8522 2.80715V1.08664C68.8522 0.885411 68.892 0.764673 68.9617 0.694243C69.0314 0.623812 69.1608 0.593628 69.3401 0.593628H78.9286C79.5957 0.593628 80.1035 0.724427 80.442 0.965903C80.7905 1.2275 80.9598 1.56959 80.9598 1.98211C80.9598 2.26383 80.9001 2.55562 80.7706 2.8474C80.6412 3.13918 80.4719 3.43097 80.2728 3.70263C80.0637 3.97429 79.8247 4.25601 79.536 4.52767C79.2572 4.79933 78.9684 5.05087 78.6598 5.29234C78.5901 5.35271 78.5204 5.41308 78.4407 5.46339C78.4108 5.48351 78.3909 5.50363 78.361 5.52376L79.307 5.88597C79.6853 6.02683 80.0936 6.16769 80.5018 6.30855L81.6867 6.70095C82.075 6.82169 82.4334 6.93236 82.772 7.02292C83.001 7.09335 83.1205 7.17384 83.1702 7.27446C83.22 7.37507 83.2001 7.53605 83.1205 7.76747L82.5927 9.21632C82.5131 9.4578 82.4135 9.5886 82.294 9.62884C82.2442 9.6389 82.1945 9.64897 82.1347 9.64897C82.065 9.64897 81.9854 9.64897 81.8958 9.61878C80.9399 9.37731 79.8944 9.04528 78.7792 8.63276C77.684 8.22023 76.5987 7.76747 75.5532 7.26439C74.5077 7.81778 73.3826 8.34097 72.1977 8.8038C71.0029 9.27669 69.7881 9.64897 68.5933 9.9005C68.4738 9.93069 68.3742 9.94075 68.2946 9.94075L68.2846 9.95081Z" fill="#00133F"/>
<path d="M85.4703 22.1252C85.3209 22.1252 85.1118 22.1051 85.0521 21.9642C85.0123 21.8636 85.0422 21.7328 85.1417 21.5517C86.0876 19.8111 86.8145 18.0201 87.3223 16.2292C87.8301 14.4382 88.079 12.7177 88.079 11.1179C88.079 9.51817 87.8102 7.81778 87.2924 6.06708C86.7647 4.31638 86.0478 2.52543 85.1616 0.734489C85.0521 0.513136 85.0123 0.362214 85.0422 0.27166C85.0919 0.120738 85.301 0.100615 85.4703 0.100615H86.914C87.0435 0.100615 87.1431 0.130799 87.2028 0.181107C87.2526 0.221353 87.3024 0.291783 87.382 0.382336C88.5271 2.0626 89.4332 3.83343 90.0903 5.63443C90.7475 7.43544 91.086 9.27669 91.086 11.1179C91.086 12.9592 90.7475 14.8206 90.0903 16.6417C89.4332 18.4528 88.5171 20.2236 87.382 21.8837C87.3024 22.0045 87.2128 22.085 87.1331 22.1051C87.0634 22.1252 86.9738 22.1252 86.8742 22.1252H85.4703Z" fill="#00133F"/>
<path d="M99.5793 21.6624C99.2706 21.6624 99.0018 21.6322 98.8026 21.5819C98.5836 21.5215 98.4143 21.431 98.2948 21.2901C98.1753 21.1593 98.0857 20.9681 98.0459 20.7468C98.0061 20.5254 97.9762 20.2538 97.9762 19.9318V16.0783C97.9762 15.716 98.1654 15.5249 98.5139 15.5249H100.665C101.023 15.5249 101.222 15.7261 101.222 16.0783V18.6842C101.222 18.8552 101.282 18.9257 101.451 18.9257H111.528C111.657 18.9257 111.786 18.9558 111.896 19.0162C112.025 19.0866 112.095 19.2275 112.095 19.4287V21.1492C112.095 21.4108 112.025 21.5618 111.886 21.6121C111.786 21.6423 111.667 21.6624 111.538 21.6624H99.5793ZM108.511 16.7826C108.321 16.7826 108.192 16.7423 108.102 16.6618C108.013 16.5813 107.973 16.4505 107.973 16.2493V0.533259C107.973 0.191168 108.162 0 108.511 0H110.721C111.04 0 111.219 0.191168 111.219 0.533259V7.51593H113.768C113.897 7.51593 114.007 7.53605 114.106 7.56624C114.306 7.63667 114.306 7.92845 114.306 8.019V9.78983C114.306 9.99106 114.246 10.1319 114.136 10.2023C114.037 10.2627 113.917 10.303 113.768 10.303H111.219V16.2594C111.219 16.4505 111.189 16.5813 111.119 16.6618C111.05 16.7423 110.92 16.7926 110.731 16.7926H108.521L108.511 16.7826ZM100.973 14.5992C100.306 14.5992 99.6689 14.4986 99.0814 14.2974C98.484 14.0961 97.9662 13.8144 97.5182 13.4623C97.0701 13.1101 96.7117 12.6775 96.4528 12.1845C96.1939 11.6914 96.0545 11.1381 96.0545 10.5444C96.0545 9.95081 96.184 9.42761 96.4528 8.9346C96.7117 8.44159 97.0701 8.00894 97.5182 7.65679C97.9662 7.30464 98.494 7.02292 99.0914 6.82169C99.6888 6.62046 100.336 6.51984 100.993 6.51984C101.65 6.51984 102.298 6.62046 102.895 6.82169C103.492 7.02292 104.02 7.30464 104.468 7.65679C104.916 8.00894 105.275 8.44159 105.534 8.9346C105.792 9.42761 105.932 9.97093 105.932 10.5444C105.932 11.1179 105.802 11.6814 105.534 12.1845C105.275 12.6775 104.916 13.1101 104.468 13.4623C104.02 13.8144 103.492 14.0961 102.895 14.2974C102.298 14.4986 101.65 14.5992 100.973 14.5992ZM100.993 8.99497C100.396 8.99497 99.9178 9.15595 99.5793 9.46786C99.2407 9.77977 99.0715 10.142 99.0715 10.5545C99.0715 10.967 99.2407 11.3494 99.5892 11.6814C99.9278 12.0134 100.406 12.1744 100.983 12.1744C101.561 12.1744 102.039 12.0134 102.387 11.6814C102.736 11.3494 102.905 10.9771 102.905 10.5545C102.905 10.1319 102.736 9.78983 102.397 9.46786C102.059 9.15595 101.581 8.99497 100.983 8.99497H100.993ZM95.0787 6.04695C94.7203 6.04695 94.5211 5.83566 94.5211 5.44326V4.03466C94.5211 3.66238 94.7302 3.46115 95.0986 3.46115H106.559C106.937 3.46115 107.137 3.66238 107.137 4.03466V5.46339C107.137 5.83566 106.927 6.03689 106.559 6.03689H95.0787V6.04695ZM98.0559 2.77697C97.9165 2.77697 97.797 2.74679 97.6874 2.68642C97.558 2.61599 97.4883 2.455 97.4883 2.20347V0.754611C97.4883 0.503074 97.548 0.342091 97.6874 0.27166C97.797 0.211291 97.9165 0.181107 98.0559 0.181107H103.751C104.13 0.181107 104.329 0.392398 104.329 0.784796V2.1934C104.329 2.38457 104.289 2.52543 104.219 2.62605C104.14 2.73672 103.98 2.79709 103.741 2.79709H98.0459L98.0559 2.77697Z" fill="#00133F"/>
<path d="M128.922 21.9642C128.544 21.9642 128.345 21.763 128.345 21.4108V16.4908C128.345 16.2895 128.265 16.2493 128.136 16.2493H117.84C117.711 16.2493 117.591 16.2191 117.492 16.1688C117.372 16.1084 117.303 15.9676 117.303 15.7663V13.9754C117.303 13.8849 117.303 13.6132 117.492 13.5327C117.591 13.4925 117.711 13.4723 117.84 13.4723H123.018V10.796H115.232C115.022 10.796 114.883 10.7557 114.803 10.6551C114.734 10.5646 114.694 10.4338 114.694 10.2426V8.61263C114.694 8.4114 114.724 8.27054 114.774 8.17999C114.843 8.06931 114.983 8.019 115.232 8.019H128.245C128.295 7.7071 128.345 7.34489 128.395 6.95249C128.444 6.50978 128.494 6.0872 128.534 5.66462C128.574 5.24203 128.614 4.8597 128.634 4.51761C128.654 4.18558 128.663 3.9441 128.663 3.8133C128.663 3.5517 128.624 3.43097 128.594 3.38066C128.584 3.36054 128.504 3.28004 128.176 3.28004H118.278C118.119 3.28004 117.99 3.25992 117.9 3.20961C117.721 3.12912 117.721 2.85746 117.721 2.76691V0.965903C117.721 0.764673 117.781 0.623812 117.89 0.563443C117.99 0.513136 118.109 0.482951 118.278 0.482951H130.217C130.764 0.482951 131.183 0.613751 131.441 0.865288C131.71 1.11683 131.85 1.54947 131.85 2.15316C131.85 2.94802 131.81 3.88373 131.74 4.94019C131.67 5.94634 131.541 6.98267 131.342 7.99888H134.05C134.409 7.99888 134.608 8.21017 134.608 8.60257V10.2325C134.608 10.4438 134.548 10.5947 134.438 10.6752C134.329 10.7457 134.2 10.7859 134.05 10.7859H126.264V13.4623H129.958C130.286 13.4623 130.555 13.4925 130.764 13.5428C130.983 13.6031 131.153 13.7037 131.272 13.8647C131.392 14.0157 131.481 14.2068 131.521 14.4382C131.561 14.6596 131.591 14.9413 131.591 15.2633V21.4108C131.591 21.763 131.412 21.9642 131.073 21.9642H128.922Z" fill="#00133F"/>
<path d="M141.657 21.5919C141.339 21.5919 141.08 21.5618 140.881 21.5115C140.662 21.4511 140.492 21.3605 140.373 21.2197C140.253 21.0889 140.164 20.8977 140.114 20.6764C140.064 20.455 140.044 20.1934 140.044 19.8614V14.8004C140.044 14.4282 140.233 14.2269 140.582 14.2269H142.753C143.101 14.2269 143.29 14.4282 143.29 14.8004V18.5634C143.29 18.7345 143.36 18.8049 143.539 18.8049H153.466C153.606 18.8049 153.725 18.8351 153.825 18.8955C153.944 18.9659 154.004 19.1068 154.004 19.308V21.0788C154.004 21.1794 154.004 21.4712 153.805 21.5416C153.705 21.5718 153.596 21.5919 153.466 21.5919H141.657ZM150.509 15.6054C150.32 15.6054 150.19 15.5651 150.111 15.4846C150.041 15.4041 150.011 15.2733 150.011 15.0822V9.30688H146.895C146.735 9.30688 146.616 9.26663 146.526 9.1962C146.427 9.11571 146.377 8.97485 146.377 8.77362V7.07323C146.377 6.83175 146.437 6.69089 146.546 6.62046C146.636 6.57015 146.755 6.53997 146.895 6.53997H150.011V0.533259C150.011 0.191168 150.19 0 150.509 0H152.719C153.048 0 153.237 0.191168 153.237 0.533259V15.0822C153.237 15.2733 153.197 15.4142 153.118 15.4947C153.038 15.5752 152.909 15.6154 152.719 15.6154H150.509V15.6054ZM137.296 13.9553C137.197 13.9452 137.097 13.8547 137.007 13.6635L136.181 11.9128C136.091 11.7518 136.071 11.621 136.101 11.5204C136.131 11.4097 136.251 11.3091 136.5 11.2085C137.406 10.806 138.252 10.3331 139.009 9.79989C139.765 9.26663 140.443 8.69312 141.03 8.0995C141.617 7.50587 142.105 6.88206 142.494 6.24818C142.882 5.61431 143.171 4.98044 143.36 4.35662C143.43 4.16546 143.42 4.0749 143.41 4.04472C143.41 4.04472 143.38 3.98435 143.111 3.98435H137.565C137.336 3.98435 137.187 3.92398 137.127 3.79318C137.077 3.69257 137.047 3.56177 137.047 3.41084V1.78088C137.047 1.58971 137.087 1.44885 137.157 1.3583C137.236 1.26775 137.376 1.21744 137.585 1.21744H145.102C145.789 1.21744 146.257 1.33818 146.526 1.59978C146.795 1.85131 146.924 2.28396 146.924 2.88765C146.924 3.83343 146.715 4.83958 146.307 5.87591C145.899 6.91224 145.292 7.92845 144.515 8.90442C143.738 9.88038 142.772 10.806 141.647 11.6512C140.522 12.4964 139.228 13.2208 137.814 13.7943C137.485 13.9352 137.376 13.9452 137.316 13.9452H137.286L137.296 13.9553Z" fill="#00133F"/>
<path d="M162.019 22.0749C161.691 22.0749 161.422 22.0447 161.213 21.9944C160.994 21.934 160.824 21.8435 160.705 21.7227C160.585 21.592 160.496 21.4209 160.456 21.2197C160.416 21.0285 160.396 20.787 160.396 20.5053V17.4667C160.396 17.175 160.416 16.9335 160.456 16.7423C160.496 16.5411 160.575 16.3801 160.705 16.2493C160.824 16.1185 160.994 16.038 161.203 15.9877C161.402 15.9374 161.661 15.9173 161.989 15.9173H170.463C170.522 15.9173 170.582 15.9072 170.582 15.7663V15.1526C170.582 15.0117 170.532 14.9816 170.443 14.9816H160.894C160.705 14.9816 160.575 14.9413 160.486 14.8608C160.396 14.7803 160.356 14.6395 160.356 14.4282V12.8586C160.356 12.5165 160.546 12.3253 160.894 12.3253H172.086C172.424 12.3253 172.713 12.3555 172.922 12.4058C173.141 12.4662 173.32 12.5567 173.45 12.6775C173.579 12.8083 173.669 12.9693 173.709 13.1705C173.748 13.3617 173.768 13.5931 173.768 13.8748V16.8932C173.768 17.2051 173.748 17.4567 173.709 17.6478C173.669 17.8591 173.589 18.0201 173.46 18.1409C173.34 18.2616 173.161 18.3421 172.952 18.3823C172.753 18.4226 172.474 18.4427 172.135 18.4427H163.752C163.632 18.4427 163.612 18.483 163.612 18.5735V19.2778C163.612 19.3684 163.642 19.4287 163.782 19.4287H173.788C173.967 19.4287 174.097 19.4589 174.187 19.5092C174.286 19.5797 174.326 19.7205 174.326 19.9519V21.5215C174.326 21.8737 174.147 22.0749 173.808 22.0749H162.019ZM158.076 11.7418C157.947 11.7418 157.827 11.6512 157.708 11.46L156.702 10.0615C156.513 9.79989 156.453 9.61878 156.493 9.49804C156.533 9.38737 156.652 9.25657 156.881 9.10565C158.375 8.08944 159.52 6.91224 160.277 5.58413C161.033 4.26607 161.412 2.66629 161.412 0.81498C161.412 0.513136 161.452 0.342091 161.551 0.27166C161.621 0.211291 161.73 0.191168 161.89 0.191168C161.93 0.191168 161.969 0.191168 162.019 0.191168L164.08 0.281722C164.269 0.301845 164.399 0.342091 164.469 0.412521C164.548 0.482951 164.588 0.613751 164.588 0.81498C164.588 1.41867 164.548 2.0123 164.479 2.57574C164.409 3.12912 164.309 3.66238 164.18 4.18558C164.389 4.66853 164.668 5.13136 164.996 5.57406C165.335 6.02683 165.703 6.44941 166.092 6.83175C166.48 7.21409 166.888 7.56624 167.286 7.87814C167.695 8.19005 168.073 8.45165 168.412 8.64282C168.65 8.78368 168.77 8.9346 168.76 9.08552C168.76 9.21632 168.69 9.37731 168.561 9.57854L167.754 10.9368C167.615 11.1481 167.495 11.2588 167.376 11.2789H167.326C167.217 11.2789 167.067 11.2286 166.868 11.1079C166.56 10.957 166.221 10.7457 165.853 10.4941C165.484 10.2426 165.116 9.94075 164.737 9.61878C164.359 9.28675 164.001 8.9346 163.652 8.5422C163.343 8.19005 163.055 7.82784 162.796 7.4455C162.308 8.24036 161.73 8.97485 161.073 9.62884C160.376 10.3231 159.58 10.9368 158.704 11.4701C158.295 11.7015 158.146 11.7418 158.076 11.7418ZM171.11 11.4097C170.781 11.4097 170.592 11.2286 170.592 10.9067V6.26831H167.257C167.107 6.26831 166.978 6.22806 166.888 6.15763C166.789 6.07714 166.739 5.93628 166.739 5.73505V4.05478C166.739 3.8938 166.759 3.66238 166.918 3.59195C167.008 3.5517 167.127 3.52152 167.257 3.52152H170.592V0.533259C170.592 0.301845 170.652 0.140861 170.781 0.0804919C170.881 0.0301845 171.01 0 171.16 0H173.33C173.569 0 173.709 0.0603689 173.758 0.181107C173.798 0.281722 173.818 0.392398 173.818 0.533259V10.8765C173.818 11.2186 173.639 11.4097 173.3 11.4097H171.11Z" fill="#00133F"/>
<path d="M181.933 21.5919C181.624 21.5919 181.356 21.5618 181.146 21.5115C180.927 21.4511 180.758 21.3605 180.639 21.2197C180.519 21.0889 180.43 20.8977 180.39 20.6764C180.34 20.455 180.32 20.1833 180.32 19.8614V14.8004C180.32 14.4282 180.509 14.2269 180.858 14.2269H183.008C183.367 14.2269 183.566 14.4282 183.566 14.8004V18.5634C183.566 18.7345 183.626 18.8049 183.795 18.8049H193.871C194.001 18.8049 194.13 18.8351 194.24 18.8955C194.369 18.9659 194.429 19.1068 194.429 19.308V21.0788C194.429 21.3404 194.359 21.4913 194.22 21.5416C194.12 21.5718 194.001 21.5919 193.871 21.5919H181.933ZM190.825 15.4645C190.635 15.4645 190.506 15.4243 190.416 15.3438C190.327 15.2633 190.287 15.1325 190.287 14.9312V0.533259C190.287 0.191168 190.476 0 190.825 0H193.035C193.354 0 193.533 0.191168 193.533 0.533259V6.46954H196.152C196.281 6.46954 196.391 6.48966 196.49 6.51984C196.62 6.57015 196.689 6.71101 196.689 6.95249V8.74343C196.689 8.94466 196.629 9.08552 196.53 9.15595C196.43 9.21632 196.311 9.25657 196.161 9.25657H193.543V14.9413C193.543 15.1325 193.513 15.2633 193.443 15.3438C193.374 15.4243 193.244 15.4645 193.055 15.4645H190.825ZM178.239 13.6031C178.11 13.6031 177.98 13.5126 177.841 13.3113L176.765 11.8625C176.576 11.611 176.516 11.4298 176.576 11.299C176.626 11.1884 176.745 11.0576 176.935 10.9067C177.681 10.3231 178.359 9.65903 178.936 8.9346C179.514 8.21017 180.001 7.42538 180.38 6.6104C180.758 5.78536 181.057 4.93013 181.246 4.04472C181.445 3.16937 181.535 2.26383 181.535 1.36836C181.535 1.06652 181.575 0.905534 181.674 0.825042C181.744 0.764673 181.853 0.74455 182.013 0.74455C182.053 0.74455 182.092 0.74455 182.142 0.74455L184.283 0.835103C184.472 0.855226 184.602 0.895472 184.671 0.965903C184.751 1.03633 184.791 1.17719 184.791 1.36836C184.791 2.00224 184.751 2.62605 184.681 3.22974C184.611 3.8133 184.512 4.39687 184.382 4.97037C184.552 5.49357 184.811 6.01677 185.129 6.51984C185.458 7.03298 185.836 7.52599 186.224 7.97876C186.623 8.43153 187.041 8.85411 187.459 9.21632C187.887 9.57854 188.286 9.89044 188.644 10.1319C188.773 10.2124 188.853 10.2929 188.913 10.3633C188.973 10.4438 188.993 10.5143 188.993 10.5847V10.6249C188.993 10.6249 188.963 10.6752 188.953 10.6954C188.953 10.7356 188.933 10.7658 188.913 10.806C188.873 10.8563 188.853 10.8966 188.833 10.9368C188.803 10.9771 187.877 12.4964 187.877 12.4964C187.738 12.6976 187.618 12.7982 187.499 12.8083C187.37 12.8083 187.22 12.758 187.011 12.6473C186.683 12.4762 186.334 12.2448 185.966 11.9631C185.597 11.6814 185.229 11.3594 184.87 10.9871C184.512 10.6249 184.163 10.2225 183.825 9.79989C183.526 9.42761 183.257 9.03522 183.028 8.63276C182.53 9.55841 181.943 10.4136 181.266 11.1783C180.559 11.9933 179.733 12.7077 178.826 13.3214C178.438 13.5729 178.289 13.6132 178.209 13.6132L178.239 13.6031Z" fill="#00133F"/>
<path d="M203.49 21.5718C203.131 21.5718 202.843 21.5517 202.614 21.5014C202.375 21.4511 202.185 21.3605 202.056 21.2398C201.917 21.109 201.817 20.9279 201.767 20.6965C201.717 20.4751 201.688 20.1833 201.688 19.8312V13.1202C201.688 12.7881 201.867 12.607 202.205 12.607H204.396C204.585 12.607 204.714 12.6372 204.794 12.7077C204.884 12.7781 204.934 12.9189 204.934 13.1202V14.6797H211.764V13.0296C211.764 12.8284 211.814 12.6976 211.913 12.607C212.003 12.5366 212.132 12.4964 212.282 12.4964H214.512C214.671 12.4964 214.791 12.5366 214.871 12.6171C214.96 12.6976 215 12.8385 215 13.0296V19.9016C215 20.5254 214.89 20.948 214.652 21.1996C214.423 21.4511 213.945 21.5718 213.208 21.5718H203.48H203.49ZM204.924 18.7043C204.924 18.7747 204.943 18.8049 205.043 18.8049H211.635C211.734 18.8049 211.754 18.7747 211.754 18.7043V17.3963H204.924V18.7043ZM212.292 11.4802C211.963 11.4802 211.774 11.299 211.774 10.967V7.48575H208.787C208.628 7.99888 208.389 8.48183 208.1 8.92454C207.791 9.38737 207.403 9.79989 206.945 10.152C206.497 10.4941 205.979 10.7658 205.402 10.957C204.834 11.1481 204.207 11.2487 203.54 11.2487C202.723 11.2487 201.976 11.0978 201.319 10.806C200.662 10.5143 200.085 10.1219 199.617 9.6389C199.139 9.15595 198.77 8.58245 198.511 7.94858C198.252 7.3147 198.123 6.63052 198.123 5.92622C198.123 5.22191 198.252 4.53773 198.511 3.8938C198.77 3.24986 199.139 2.67636 199.617 2.18334C200.094 1.69033 200.672 1.29793 201.319 1.00615C201.976 0.714366 202.723 0.563443 203.54 0.563443C204.247 0.563443 204.914 0.67412 205.501 0.885411C206.089 1.0967 206.626 1.40861 207.084 1.79094C207.542 2.17328 207.931 2.62605 208.229 3.12912C208.518 3.61207 208.727 4.13527 208.847 4.68865H211.754V0.533259C211.754 0.291783 211.814 0.140861 211.943 0.0804919C212.043 0.0301845 212.172 0 212.322 0H214.492C214.731 0 214.871 0.0603689 214.92 0.181107C214.96 0.281722 214.98 0.392398 214.98 0.533259V10.9469C214.98 11.289 214.801 11.4802 214.462 11.4802H212.272H212.292ZM203.55 3.40078C203.201 3.40078 202.882 3.47121 202.594 3.60201C202.305 3.74287 202.056 3.92398 201.847 4.15539C201.638 4.38681 201.479 4.65847 201.369 4.96031C201.259 5.26216 201.2 5.59419 201.2 5.92622C201.2 6.25824 201.259 6.58021 201.369 6.86193C201.479 7.15372 201.638 7.41532 201.847 7.64673C202.056 7.87814 202.305 8.05925 202.594 8.19005C202.882 8.32085 203.201 8.38122 203.55 8.38122C203.898 8.38122 204.247 8.31079 204.535 8.19005C204.824 8.05925 205.083 7.87814 205.292 7.64673C205.501 7.41532 205.66 7.15372 205.78 6.86193C205.889 6.57015 205.949 6.25824 205.949 5.92622C205.949 5.59419 205.889 5.27222 205.77 4.96031C205.65 4.65847 205.481 4.38681 205.272 4.15539C205.063 3.92398 204.804 3.74287 204.515 3.60201C204.227 3.46115 203.898 3.40078 203.55 3.40078Z" fill="#00133F"/>
</svg>
